<svg width="67" height="84" viewBox="0 0 67 84" fill="none" xmlns="http://www.w3.org/2000/svg">
<path d="M33.5 2C31.8708 2 30.2657 2.12438 28.7008 2.3611V17.5914C30.5306 16.9053 32.5129 16.5321 34.5794 16.5321C43.8448 16.5321 51.3567 24.043 51.3567 33.3071C51.3567 42.5713 43.8448 50.0781 34.5794 50.0781C29.8163 50.0781 25.5187 48.092 22.465 44.9063C19.5999 41.9173 17.8343 37.873 17.8062 33.4114H17.8022V33.2951V6.18471C8.41236 11.5931 2.07223 21.6998 2.00401 33.2951H2V81L22.465 72.3979V63.0013C25.8959 64.2892 29.6157 64.9914 33.5 64.9914C50.8952 64.9914 65 50.8885 65 33.4957C65 16.1028 50.8952 2 33.5 2Z" stroke="#B3B3B3" stroke-width="3" stroke-miterlimit="10"/>
<circle cx="34.5" cy="33.5" r="6" stroke="#B3B3B3" stroke-width="3"/>
</svg>
